<?xml version="1.0" standalone="no"?>
<!DOCTYPE svg PUBLIC "-//W3C//DTD SVG 1.1//EN" "http://www.w3.org/Graphics/SVG/1.1/DTD/svg11.dtd">
<svg width="100%" height="100%" viewBox="0 0 940 1080" version="1.1" xmlns="http://www.w3.org/2000/svg" xmlns:xlink="http://www.w3.org/1999/xlink" xml:space="preserve" style="fill-rule:evenodd;clip-rule:evenodd;stroke-linejoin:round;stroke-miterlimit:1.41421;">
    <g id="Calque1">
        <g>
            <path d="M229.37,786.626L218.257,847.22L240.482,847.22L229.37,786.626ZM252.469,895.149C250.9,895.149 250.037,894.285 249.685,892.717L244.822,867.369L213.918,867.369L209.237,892.717C208.884,894.285 208.021,895.149 206.453,895.149L187.877,895.149C185.967,895.149 185.105,894.103 185.627,892.194L214.44,758.677C214.793,756.939 215.826,756.246 217.395,756.246L241.527,756.246C243.1,756.246 244.129,756.939 244.486,758.677L273.311,892.194C273.652,894.103 272.959,895.149 270.88,895.149L252.469,895.149Z" style="fill:black;fill-rule:nonzero;"/>
            <path d="M329.792,825.689C334.302,825.689 336.733,823.27 336.733,818.748L336.733,786.105C336.733,781.595 334.302,779.164 329.792,779.164L312.6,779.164L312.6,825.689L329.792,825.689ZM360.36,823.611C360.36,835.245 356.019,842.88 347.675,846.528L359.667,892.024C360.173,894.103 359.143,895.15 357.231,895.15L339.165,895.15C337.443,895.15 336.563,894.286 336.222,892.717L324.587,848.623L312.6,848.623L312.6,892.365C312.6,894.103 311.568,895.15 309.828,895.15L291.775,895.15C290.037,895.15 288.991,894.103 288.991,892.365L288.991,759.014C288.991,757.292 290.037,756.247 291.775,756.247L335.347,756.247C351.678,756.247 360.36,764.927 360.36,781.242L360.36,823.611Z" style="fill:black;fill-rule:nonzero;"/>
            <path d="M440.958,756.246C442.882,756.246 443.742,757.291 443.742,759.017L443.742,776.39C443.742,778.116 442.882,779.162 440.958,779.162L420.825,779.162L420.825,892.364C420.825,894.289 419.949,895.148 418.041,895.148L399.987,895.148C398.248,895.148 397.215,894.289 397.215,892.364L397.215,779.162L377.071,779.162C375.327,779.162 374.282,778.116 374.282,776.39L374.282,759.017C374.282,757.291 375.327,756.246 377.071,756.246L440.958,756.246Z" style="fill:black;fill-rule:nonzero;"/>
            <path d="M478.508,756.246C480.247,756.246 481.28,757.291 481.28,759.017L481.28,892.364C481.28,894.102 480.247,895.148 478.508,895.148L460.455,895.148C458.53,895.148 457.67,894.102 457.67,892.364L457.67,759.017C457.67,757.291 458.53,756.246 460.455,756.246L478.508,756.246Z" style="fill:black;fill-rule:nonzero;"/>
            <path d="M543.119,756.246C559.434,756.246 568.127,764.926 568.127,781.24L568.127,799.647C568.127,801.386 567.251,802.435 565.343,802.435L547.289,802.435C545.55,802.435 544.505,801.386 544.505,799.647L544.505,786.103C544.505,781.593 542.255,779.162 537.563,779.162L529.236,779.162C524.895,779.162 522.281,781.593 522.281,786.103L522.281,810.066L563.605,823.614C566.558,824.829 568.127,826.738 568.127,830.045L568.127,870.14C568.127,886.468 559.434,895.148 543.119,895.148L523.679,895.148C507.518,895.148 498.671,886.468 498.671,870.14L498.671,851.916C498.671,850.008 499.712,849.132 501.456,849.132L519.509,849.132C521.418,849.132 522.281,850.008 522.281,851.916L522.281,865.289C522.281,869.97 524.895,872.232 529.236,872.232L537.563,872.232C542.073,872.232 544.505,869.97 544.505,865.289L544.505,842.19L503.364,828.642C500.24,827.614 498.671,825.518 498.671,822.228L498.671,781.24C498.671,764.926 507.518,756.246 523.679,756.246L543.119,756.246Z" style="fill:black;fill-rule:nonzero;"/>
            <path d="M622.504,786.626L611.392,847.22L633.616,847.22L622.504,786.626ZM645.603,895.149C644.034,895.149 643.172,894.285 642.819,892.717L637.956,867.369L607.052,867.369L602.371,892.717C602.019,894.285 601.156,895.149 599.587,895.149L581.011,895.149C579.098,895.149 578.239,894.103 578.761,892.194L607.574,758.677C607.927,756.939 608.96,756.246 610.529,756.246L634.661,756.246C636.23,756.246 637.263,756.939 637.616,758.677L666.445,892.194C666.786,894.103 666.089,895.149 664.014,895.149L645.603,895.149Z" style="fill:black;fill-rule:nonzero;"/>
            <path d="M751.752,756.246C753.478,756.246 754.524,757.291 754.524,759.017L754.524,892.364C754.524,894.102 753.478,895.148 751.752,895.148L734.562,895.148C732.993,895.148 731.96,894.455 731.437,892.887L704.869,818.747L703.994,818.747L703.994,892.364C703.994,894.102 703.13,895.148 701.222,895.148L683.168,895.148C681.429,895.148 680.384,894.102 680.384,892.364L680.384,759.017C680.384,757.291 681.429,756.246 683.168,756.246L700.346,756.246C701.915,756.246 702.965,756.939 703.47,758.506L729.869,832.294L730.914,832.294L730.914,759.017C730.914,757.291 731.774,756.246 733.686,756.246L751.752,756.246Z" style="fill:black;fill-rule:nonzero;"/>
            <path d="M39.5846,1051.76C44.1074,1051.76 46.5264,1049.5 46.5264,1044.82L46.5264,965.811C46.5264,961.118 44.1074,958.686 39.5846,958.686L23.6097,958.686L23.6097,1051.76L39.5846,1051.76ZM0,938.538C0,936.816 0.858914,935.766 2.78422,935.766L44.4476,935.766C60.7628,935.766 69.4597,944.62 69.4597,960.948L69.4597,1049.66C69.4597,1066 60.7628,1074.67 44.4476,1074.67L2.78422,1074.67C0.858914,1074.67 0,1073.81 0,1071.89L0,938.538Z" style="fill:black;fill-rule:nonzero;"/>
            <path d="M156.138,955.914C156.138,957.64 155.446,958.856 153.367,958.856L109.948,958.856L109.948,993.594L143.118,993.594C144.856,993.594 145.902,994.623 145.902,996.531L145.902,1013.73C145.902,1015.63 144.856,1016.68 143.118,1016.68L109.948,1016.68L109.948,1051.76L153.367,1051.76C155.446,1051.76 156.138,1052.62 156.138,1054.53L156.138,1071.89C156.138,1073.63 155.446,1074.67 153.367,1074.67L89.4624,1074.67C87.9065,1074.67 86.8608,1073.63 86.8608,1071.89L86.8608,938.536C86.8608,936.815 87.9065,935.768 89.4624,935.768L153.367,935.768C155.446,935.768 156.138,936.815 156.138,938.536L156.138,955.914Z" style="fill:black;fill-rule:nonzero;"/>
            <path d="M250.65,935.767C253.252,935.767 254.297,937.153 253.775,939.585L224.426,1071.55C223.916,1073.63 222.7,1074.67 220.605,1074.67L203.248,1074.67C201.165,1074.67 199.954,1073.63 199.427,1071.55L170.261,939.585C169.739,937.153 170.784,935.767 173.385,935.767L189.871,935.767C191.962,935.767 193.178,936.813 193.701,938.892L211.925,1031.96L230.335,938.892C230.858,936.813 232.073,935.767 234.152,935.767L250.65,935.767Z" style="fill:black;fill-rule:nonzero;"/>
            <path d="M337.16,955.914C337.16,957.64 336.468,958.856 334.389,958.856L290.97,958.856L290.97,993.594L324.14,993.594C325.878,993.594 326.924,994.623 326.924,996.531L326.924,1013.73C326.924,1015.63 325.878,1016.68 324.14,1016.68L290.97,1016.68L290.97,1051.76L334.389,1051.76C336.468,1051.76 337.16,1052.62 337.16,1054.53L337.16,1071.89C337.16,1073.63 336.468,1074.67 334.389,1074.67L270.485,1074.67C268.929,1074.67 267.883,1073.63 267.883,1071.89L267.883,938.536C267.883,936.815 268.929,935.768 270.485,935.768L334.389,935.768C336.468,935.768 337.16,936.815 337.16,938.536L337.16,955.914Z" style="fill:black;fill-rule:nonzero;"/>
            <path d="M378.189,1051.76L419.513,1051.76C421.421,1051.76 422.301,1052.8 422.301,1054.53L422.301,1071.89C422.301,1073.81 421.421,1074.67 419.513,1074.67L357.363,1074.67C355.624,1074.67 354.579,1073.81 354.579,1071.89L354.579,938.538C354.579,936.816 355.624,935.766 357.363,935.766L375.417,935.766C377.326,935.766 378.189,936.816 378.189,938.538L378.189,1051.76Z" style="fill:black;fill-rule:nonzero;"/>
            <path d="M474.596,1052.28C479.106,1052.28 481.538,1050.02 481.538,1045.32L481.538,965.118C481.538,960.595 479.106,958.163 474.596,958.163L464.529,958.163C460.002,958.163 457.575,960.595 457.575,965.118L457.575,1045.32C457.575,1050.02 460.002,1052.28 464.529,1052.28L474.596,1052.28ZM434.488,960.765C434.488,944.45 443.169,935.765 459.496,935.765L478.936,935.765C495.251,935.765 503.944,944.45 503.944,960.765L503.944,1049.66C503.944,1066 495.251,1074.67 478.936,1074.67L459.496,1074.67C443.169,1074.67 434.488,1066 434.488,1049.66L434.488,960.765Z" style="fill:black;fill-rule:nonzero;"/>
            <path d="M560.243,1005.21C564.936,1005.21 567.185,1002.61 567.185,998.272L567.185,965.629C567.185,961.118 564.936,958.686 560.243,958.686L544.962,958.686L544.962,1005.21L560.243,1005.21ZM521.352,938.538C521.352,936.816 522.397,935.766 524.136,935.766L565.799,935.766C582.115,935.766 590.807,944.45 590.807,960.765L590.807,1003.13C590.807,1019.28 582.115,1028.15 565.799,1028.15L544.962,1028.15L544.962,1071.89C544.962,1073.63 544.098,1074.67 542.19,1074.67L524.136,1074.67C522.397,1074.67 521.352,1073.63 521.352,1071.89L521.352,938.538Z" style="fill:black;fill-rule:nonzero;"/>
            <path d="M647.107,1005.21C651.8,1005.21 654.048,1002.61 654.048,998.272L654.048,965.629C654.048,961.118 651.8,958.686 647.107,958.686L631.824,958.686L631.824,1005.21L647.107,1005.21ZM608.215,938.538C608.215,936.816 609.261,935.766 610.999,935.766L652.662,935.766C668.978,935.766 677.67,944.45 677.67,960.765L677.67,1003.13C677.67,1019.28 668.978,1028.15 652.662,1028.15L631.824,1028.15L631.824,1071.89C631.824,1073.63 630.962,1074.67 629.052,1074.67L610.999,1074.67C609.261,1074.67 608.215,1073.63 608.215,1071.89L608.215,938.538Z" style="fill:black;fill-rule:nonzero;"/>
            <path d="M764.352,955.914C764.352,957.64 763.659,958.856 761.58,958.856L718.166,958.856L718.166,993.594L751.331,993.594C753.07,993.594 754.115,994.623 754.115,996.531L754.115,1013.73C754.115,1015.63 753.07,1016.68 751.331,1016.68L718.166,1016.68L718.166,1051.76L761.58,1051.76C763.659,1051.76 764.352,1052.62 764.352,1054.53L764.352,1071.89C764.352,1073.63 763.659,1074.67 761.58,1074.67L697.677,1074.67C696.12,1074.67 695.079,1073.63 695.079,1071.89L695.079,938.536C695.079,936.815 696.12,935.768 697.677,935.768L761.58,935.768C763.659,935.768 764.352,936.815 764.352,938.536L764.352,955.914Z" style="fill:black;fill-rule:nonzero;"/>
            <path d="M847.752,935.767C849.66,935.767 851.228,937.335 851.228,939.244L851.228,1049.66C851.228,1066 842.535,1074.67 826.22,1074.67L806.78,1074.67C790.448,1074.67 781.768,1066 781.768,1049.66L781.768,939.244C781.768,937.335 783.341,935.767 785.249,935.767L801.918,935.767C803.827,935.767 805.382,937.335 805.382,939.244L805.382,1044.82C805.382,1049.49 807.814,1051.76 812.336,1051.76L821.358,1051.76C825.88,1051.76 828.299,1049.49 828.299,1044.82L828.299,939.244C828.299,937.335 829.867,935.767 831.776,935.767L847.752,935.767Z" style="fill:black;fill-rule:nonzero;"/>
            <path d="M909.436,1005.21C913.946,1005.21 916.378,1002.79 916.378,998.272L916.378,965.629C916.378,961.118 913.946,958.686 909.436,958.686L892.246,958.686L892.246,1005.21L909.436,1005.21ZM940,1003.13C940,1014.77 935.659,1022.41 927.32,1026.05L939.311,1071.55C939.817,1073.63 938.784,1074.67 936.876,1074.67L918.809,1074.67C917.083,1074.67 916.207,1073.81 915.867,1072.24L904.233,1028.15L892.246,1028.15L892.246,1071.89C892.246,1073.63 891.212,1074.67 889.474,1074.67L871.42,1074.67C869.681,1074.67 868.632,1073.63 868.632,1071.89L868.632,938.538C868.632,936.816 869.681,935.766 871.42,935.766L914.992,935.766C931.32,935.766 940,944.45 940,960.765L940,1003.13Z" style="fill:black;fill-rule:nonzero;"/>
            <path d="M612.442,210.093L527.908,298.171L550.456,329.536L660.488,250.013L612.442,210.093Z" style="fill:black;fill-rule:nonzero;"/>
            <path d="M550.507,158.632L472.055,269.365L470.927,275.071L519.632,292.601L603.888,202.984L550.507,158.632Z" style="fill:black;fill-rule:nonzero;"/>
            <path d="M478.979,99.1955L434.98,62.6275L377.233,132.357L433.785,160.075L478.979,99.1955Z" style="fill:black;fill-rule:nonzero;"/>
            <path d="M541.47,151.116L488.334,106.975L445.364,165.754L488.359,186.824L477.492,241.836L541.47,151.116Z" style="fill:black;fill-rule:nonzero;"/>
            <path d="M470,540.402C503.676,540.402 535.551,532.531 563.887,518.544L563.526,448.291L614.55,404.802L640.89,273.053L545.131,340.741L518.929,301.621L368.524,240.207L403.573,243.298L459.465,270.737L468.776,233.542L478.551,194.452L372.88,147.602L274.832,257.642L398.47,442.843L381.906,521.303C408.764,533.565 438.602,540.402 470,540.402" style="fill:black;fill-rule:nonzero;"/>
            <path d="M470,552.397C345.997,552.397 245.118,451.518 245.118,327.515C245.118,241.64 293.509,166.865 364.45,128.995L368.001,124.704L425.739,54.9828L433.399,45.7339L442.639,53.406L486.647,89.9696L495.377,97.2271L495.373,97.2353L495.995,97.7544L505.195,105.397C612.537,122.343 694.881,215.491 694.881,327.515C694.881,451.518 594.003,552.397 470,552.397M479.888,598.205L485.427,615.25L470.929,604.715L456.427,615.25L461.967,598.205L447.469,587.67L465.39,587.67L470.929,570.629L476.464,587.67L494.386,587.67L479.888,598.205ZM269.293,124.02L274.832,106.974L280.371,124.02L298.293,124.02L283.79,134.555L289.329,151.6L274.832,141.065L260.334,151.6L265.87,134.555L251.372,124.02L269.293,124.02ZM646.417,124.02L651.956,106.974L657.495,124.02L675.417,124.02L660.919,134.555L666.454,151.6L651.956,141.065L637.459,151.6L642.998,134.555L628.496,124.02L646.417,124.02ZM763.768,281.076C763.528,279.951 763.212,279.35 762.843,279.159C761.669,272.042 760.229,265.018 758.561,258.08C758.823,257.752 758.909,257.134 758.694,256.014C755.556,239.661 784.063,229.346 777.81,214.537C775.179,208.309 775.457,208.973 771.715,200.106C767.972,191.239 768.25,191.902 765.619,185.671C759.365,170.865 732.092,184.106 722.561,170.45C721.823,169.393 721.246,168.956 720.81,169.035C717.744,164.202 714.528,159.467 711.196,154.824C711.474,154.463 711.292,153.749 710.561,152.629C701.503,138.658 724.03,118.372 712.665,107.007C707.885,102.227 708.392,102.733 701.587,95.9281C694.781,89.1234 695.292,89.6334 690.508,84.8497C679.143,73.4846 658.857,96.0109 644.89,86.9533C643.778,86.2314 643.068,86.0488 642.7,86.3144C636.953,82.1817 631.061,78.2439 625.014,74.5262C625.068,74.0905 624.629,73.5303 623.579,72.8208C609.799,63.4765 622.662,36.0245 607.77,29.9747C601.5,27.4312 602.169,27.7009 593.252,24.0785C584.334,20.4562 585.003,20.726 578.737,18.1823C563.845,12.1326 553.924,40.7796 537.531,37.8668C536.472,37.6801 535.883,37.7631 535.539,37.9913C529.87,36.705 524.132,35.5971 518.344,34.6427C518.132,34.286 517.535,33.9788 516.439,33.7465C500.157,30.2777 501.742,0 485.668,0L470,0L454.332,0C438.262,0 439.847,30.2777 423.565,33.7465C422.407,33.9955 421.801,34.3192 421.627,34.705C414.523,35.8834 407.495,37.2859 400.565,38.9539C400.241,38.6925 399.623,38.6054 398.499,38.8211C382.146,41.958 371.831,13.4522 357.026,19.7052C350.793,22.3359 351.458,22.0579 342.591,25.8005C333.723,29.5432 334.388,29.2652 328.159,31.8959C313.35,38.1489 326.591,65.4183 312.939,74.9535C311.882,75.6921 311.446,76.2647 311.525,76.7045C306.687,79.7709 301.957,82.9866 297.314,86.3185C296.948,86.0405 296.234,86.2231 295.114,86.9492C281.143,96.0109 260.857,73.4846 249.492,84.8497C244.712,89.6293 245.223,89.1193 238.413,95.9281C231.608,102.733 232.119,102.223 227.339,107.007C215.97,118.372 238.501,138.654 229.438,152.625C228.717,153.737 228.534,154.446 228.8,154.811C224.671,160.562 220.733,166.454 217.012,172.496C216.575,172.446 216.015,172.886 215.306,173.936C205.961,187.716 178.51,174.852 172.46,189.744C169.916,196.01 170.186,195.346 166.563,204.263C162.941,213.176 163.215,212.512 160.667,218.777C154.622,233.669 183.265,243.591 180.351,259.984C180.165,261.042 180.252,261.628 180.476,261.972C179.19,267.645 178.082,273.382 177.128,279.171C176.771,279.383 176.468,279.98 176.232,281.071C172.763,297.358 142.489,295.773 142.489,311.843L142.489,343.179C142.489,359.253 172.763,357.668 176.232,373.95C176.472,375.074 176.788,375.676 177.157,375.867C178.331,382.987 179.771,390.012 181.439,396.95C181.177,397.278 181.094,397.892 181.306,399.012C184.444,415.365 155.937,425.684 162.19,440.488C164.821,446.721 164.543,446.057 168.285,454.924C172.028,463.787 171.75,463.123 174.381,469.356C180.634,484.161 207.907,470.924 217.439,484.576C218.177,485.633 218.75,486.069 219.185,485.99C222.252,490.828 225.472,495.558 228.804,500.201C228.53,500.566 228.712,501.281 229.438,502.401C238.497,516.368 215.97,536.653 227.335,548.018C232.115,552.802 231.608,552.292 238.413,559.097C245.219,565.902 244.708,565.396 249.492,570.176C260.857,581.541 281.143,559.014 295.11,568.076C296.218,568.794 296.923,568.977 297.292,568.715C303.043,572.848 308.939,576.786 314.985,580.507C314.935,580.94 315.375,581.5 316.42,582.209C330.205,591.554 317.342,619.005 332.23,625.051C338.499,627.599 337.831,627.329 346.748,630.947C355.665,634.57 354.997,634.3 361.263,636.843C376.155,642.893 386.08,614.25 402.473,617.158C403.524,617.346 404.109,617.263 404.453,617.039C410.129,618.325 415.868,619.437 421.66,620.391C421.871,620.748 422.469,621.046 423.561,621.279C439.843,624.752 438.258,655.026 454.332,655.026L485.668,655.026C501.738,655.026 500.153,624.752 516.439,621.279C517.502,621.055 518.099,620.76 518.328,620.416C525.481,619.241 532.547,617.797 539.521,616.117C539.87,616.333 540.456,616.407 541.501,616.209C557.854,613.067 568.169,641.574 582.974,635.324C589.206,632.689 588.542,632.972 597.409,629.229C606.276,625.482 605.612,625.764 611.84,623.134C626.65,616.88 613.409,589.608 627.06,580.076C628.09,579.359 628.521,578.799 628.475,578.362C633.33,575.284 638.085,572.063 642.744,568.719C643.123,568.951 643.807,568.778 644.886,568.076C658.857,559.018 679.143,581.545 690.508,570.18C695.288,565.396 694.777,565.907 701.587,559.101C708.392,552.296 707.881,552.806 712.665,548.022C724.03,536.657 701.499,516.372 710.561,502.401C711.3,501.264 711.466,500.554 711.171,500.193C715.305,494.438 719.312,488.584 723.034,482.525C723.461,482.542 724.009,482.106 724.694,481.094C734.038,467.309 761.49,480.173 767.54,465.281C770.083,459.016 769.814,459.683 773.437,450.767C777.059,441.85 776.785,442.518 779.333,436.252C785.382,421.36 756.735,411.435 759.648,395.041C759.847,393.908 759.752,393.286 759.482,392.971C760.756,387.327 761.893,381.631 762.843,375.871C763.212,375.68 763.528,375.078 763.768,373.954C767.237,357.668 797.511,359.257 797.511,343.183L797.511,327.515L797.511,311.847C797.511,295.777 767.237,297.362 763.768,281.076" style="fill:black;fill-rule:nonzero;"/>
        </g>
    </g>
</svg>
